<svg xmlns="http://www.w3.org/2000/svg" viewBox="0 0 32 32" width="32" height="32" fill="none">
  <circle cx="16" cy="16" r="16" fill="#8247E5"/>
  <path d="M21.092 13.12c-.367-.217-.846-.217-1.242 0l-2.842 1.654-1.93 1.09-2.842 1.654c-.367.217-.846.217-1.242 0l-2.23-1.308c-.367-.217-.604-.604-.604-1.035V12.6c0-.431.237-.819.604-1.035l2.2-1.28c.367-.217.846-.217 1.242 0l2.2 1.28c.367.217.604.604.604 1.035v1.654l1.93-1.119V11.48c0-.431-.237-.819-.604-1.035l-4.101-2.384c-.367-.217-.846-.217-1.242 0L7.058 10.445a1.2 1.2 0 00-.604 1.035v4.768c0 .431.237.819.604 1.035l4.13 2.384c.367.217.846.217 1.242 0l2.842-1.625 1.93-1.119 2.842-1.625c.367-.217.846-.217 1.242 0l2.2 1.28c.367.217.604.604.604 1.035v2.557c0 .431-.237.819-.604 1.035l-2.2 1.308c-.367.217-.846.217-1.242 0l-2.2-1.308c-.367-.217-.604-.604-.604-1.035v-1.654l-1.93 1.119v1.654c0 .431.237.819.604 1.035l4.13 2.384c.367.217.846.217 1.242 0l4.13-2.384c.367-.217.604-.604.604-1.035v-4.768c0-.431-.237-.819-.604-1.035l-4.13-2.384z" fill="white"/>
</svg> 